HIERARCHY
ROOT Spine
{
    OFFSET 0.0 0.0 -0.0
    CHANNELS 6 Xposition Yposition Zposition Zrotation Xrotation Yrotation
    JOINT ShoulderCenter
    {
        OFFSET 0.0 32.71935272216797 0.0
        CHANNELS 3 Zrotation Xrotation Yrotation
        JOINT LeftShoulder
        {
            OFFSET 18.05652618408203 0.0 0.0
            CHANNELS 3 Zrotation Xrotation Yrotation
            JOINT LeftElbow
            {
                OFFSET 32.530338287353516 0.0 0.0
                CHANNELS 3 Zrotation Xrotation Yrotation
                JOINT LeftHand
                {
                    OFFSET 32.951438903808594 0.0 0.0
                    CHANNELS 3 Zrotation Xrotation Yrotation
                    End Site
                    {
                        OFFSET 13.180575370788574 0.0 0.0
                    }
                }
            }
        }
        JOINT RightShoulder
        {
            OFFSET -18.05652618408203 0.0 0.0
            CHANNELS 3 Zrotation Xrotation Yrotation
            JOINT RightElbow
            {
                OFFSET -32.530338287353516 0.0 0.0
                CHANNELS 3 Zrotation Xrotation Yrotation
                JOINT RightHand
                {
                    OFFSET -32.951438903808594 0.0 0.0
                    CHANNELS 3 Zrotation Xrotation Yrotation
                    End Site
                    {
                        OFFSET -13.180575370788574 0.0 0.0
                    }
                }
            }
        }
        End Site
        {
            OFFSET 0.0 13.08774185180664 0.0
        }
    }
    JOINT LeftHip
    {
        OFFSET 16.89911945697893 -16.89911945697893 0.0
        CHANNELS 3 Zrotation Xrotation Yrotation
        JOINT LeftKnee
        {
            OFFSET 0.0 -39.267852783203125 0.0
            CHANNELS 3 Zrotation Xrotation Yrotation
            JOINT LeftFoot
            {
                OFFSET 0.0 -45.6805419921875 0.0
                CHANNELS 3 Zrotation Xrotation Yrotation
                End Site
                {
                    OFFSET 0.0 0.0 18.272216796875
                }
            }
        }
    }
    JOINT RightHip
    {
        OFFSET -16.89911945697893 -16.89911945697893 0.0
        CHANNELS 3 Zrotation Xrotation Yrotation
        JOINT RightKnee
        {
            OFFSET 0.0 -39.267852783203125 0.0
            CHANNELS 3 Zrotation Xrotation Yrotation
            JOINT RightFoot
            {
                OFFSET 0.0 -45.6805419921875 0.0
                CHANNELS 3 Zrotation Xrotation Yrotation
                End Site
                {
                    OFFSET 0.0 0.0 18.272216796875
                }
            }
        }
    }
}
MOTION
Frames: 9
Frame Time: 0.03333333333333333
-15.700000762939453 6.5 -122.80000305175781 5.257809543507576 -2.9725700319757578 -97.63203395183534 1.6465073938834938e-07 -2.4744370519623164e-07 0.2569127949219558 107.29520458470915 1.1692431359791013 172.63352800515298 -1.968586315434473e-06 4.2032910574333927e-07 40.43866923949464 -3.1805546814635168e-15 0.0 0.0 -158.49175738945112 24.985712405992064 158.09179933162676 7.684489369020565e-07 3.883944907898199e-07 -106.32797475999047 -7.951386703658792e-16 2.385416011097637e-15 3.1805546814635164e-15 6.567921313753988 -19.459360746856973 13.043503289345168 7.968999509293375 22.73652703962542 -66.33788643172092 7.951386703658792e-16 1.5902773407317584e-15 -1.987846675914698e-16 2.0629106802086468 -17.447160053545275 -0.48270953441318365 -6.814819800382342 18.89687425397816 38.20459310332331 -2.4138550067461804e-32 3.9756933518293955e-16 6.957463365701441e-15
-15.700000762939453 6.400000095367432 -122.80000305175781 5.08348229949267 -2.7987585662940067 -97.90670174830633 -6.420824418527124e-08 3.815146368844698e-07 0.6352675711550586 107.36417587341634 3.7872447271157315 172.56992262386564 -1.8266016175322828e-06 -3.8952930730944784e-06 40.94415721984394 -3.180554681463516e-15 0.0 0.0 -159.3202654309878 26.545901600610573 156.65301205567442 1.4224591861332827e-06 2.5972916193148336e-06 -107.71713562864633 1.5902773407317584e-15 1.5902773407317584e-15 -2.2069531490250793e-32 6.950915012302446 -19.207014863750167 11.87218243437101 7.3805495320501056 23.059626505197024 -66.73660113374264 1.6552148617688095e-32 1.5902773407317588e-15 -1.1927080055488192e-15 2.1847934110577447 -17.548412775072425 -0.15888312120655992 -6.353948463681123 19.53905380045643 38.10811785597371 -9.155407204158728e-32 1.1927080055488192e-15 8.79622154092254e-15
-15.80000114440918 6.199999809265137 -122.80000305175781 4.734548279617903 -2.1009033615185264 -97.92592201156764 -6.563113319555055e-08 -3.8483065141387673e-07 1.347259338195648 108.04598106368873 4.104174085896671 172.89172333934187 6.972602920620458e-06 -3.617896452252286e-06 40.762166936841815 3.1805546814635168e-15 -1.7655625192200634e-31 -6.3611093629270335e-15 -160.15075719201846 28.493105435629015 156.24691530072946 -1.079175502002556e-06 1.028432405494803e-06 -109.51417382378257 -3.975693351829395e-16 -2.2069531490250793e-32 6.361109362927032e-15 7.576386212784979 -18.76860635470572 10.235548495740964 6.921841298211627 23.643181522152638 -66.8118964390054 0.0 0.0 -3.4787316828507206e-15 2.6714780868694974 -17.1302428336964 0.8625593211046427 -5.714603975879172 19.818114433005306 37.56152364323409 -7.951386703658794e-16 -2.0000512913039782e-32 2.882377680076313e-15
-16.0 6.199999809265137 -122.80000305175781 4.210497306289027 -1.7522491059736862 -98.17418988755617 -1.4195384255965744e-07 2.918320496742252e-07 1.3532812870025372 108.37711635404915 5.679436743826127 172.83365693298637 -1.2235293588876533e-06 1.4385644543527753e-06 40.45958262040418 -3.1805546814635168e-15 -6.3611093629270335e-15 -1.7655625192200634e-31 -160.23515851510848 30.174376488865875 154.02467385727988 -5.681353682433766e-07 -3.880435767565885e-06 -110.28187324368427 0.0 0.0 0.0 7.7825809649029924 -17.5891636560352 6.568236703175532 5.270965028367545 23.57532478034084 -63.06962634656238 3.975693351829396e-16 2.758691436281349e-33 7.951386703658792e-16 2.98193335076042 -16.41017868676744 1.7931501837365085 -5.354390032458307 20.133675249623497 37.602471797321414 7.951386703658792e-16 -7.951386703658791e-16 6.907767198803575e-15
-16.200000762939453 6.199999809265137 -122.80000305175781 3.499965785781956 -1.398817931462684 -98.16939096123565 -3.3227968758208584e-07 1.246375624741466e-07 1.5596269513485137 108.70374549241357 6.373235131255916 172.53840200614735 -2.1030650308360417e-06 7.276589004972342e-07 40.47844387490533 0.0 0.0 -6.3611093629270335e-15 -160.31110093503324 32.0296780438935 152.43694619909542 1.3784931477779738e-06 3.0503166024622366e-06 -111.2149165821064 -3.1805546814635168e-15 1.5902773407317584e-15 4.4139062980501586e-32 8.094053187365008 -16.542572511176534 5.490388984661379 4.70475955320767 23.491262295101798 -62.09060189874477 -5.793252016190833e-32 1.5902773407317584e-15 4.174478019420866e-15 3.340433902020024 -15.493872301425622 2.0450202086618265 -5.384436167881853 20.052866453619657 37.3677735664841 2.758691436281349e-32 -7.951386703658794e-16 3.975693351829397e-15
-16.399999618530273 6.199999809265137 -122.69999694824219 2.9759983781590758 -0.8748325752361974 -98.16420292554353 2.9700889794327596e-07 3.839437754027598e-09 0.20856196681335618 109.21739775710998 8.581126874518679 172.08895854366992 1.2409682739740575e-06 -2.9138393302408734e-06 39.928393849843026 0.0 0.0 0.0 -159.48532652477363 33.55057128798124 149.0876291794433 1.1911288365328501e-06 2.5733830076006168e-06 -111.78331080539535 7.951386703658791e-16 -4.4139062980501586e-32 -6.361109362927033e-15 8.316359331384989 -15.81372890115832 4.002530613063061 4.288029248134566 23.55898077041178 -60.96250188466619 3.975693351829396e-16 -3.4483642953516864e-33 -9.93923337957349e-16 3.4255242820640954 -14.664523096841577 2.827351938783748 -4.739780077679397 20.076258451895356 37.04614455291924 1.1724438604195735e-32 7.951386703658792e-16 -1.6896696745274934e-15
-16.599998474121094 6.099999904632568 -122.5999984741211 2.6264054010934217 -0.17502927542520091 -98.72447798072015 -1.95551635015798e-07 1.4612521050024513e-08 1.5325848941275708 109.83258992003184 8.95712644303585 172.12420342731912 4.202134343822874e-06 4.7278397599171e-07 39.828330425053096 3.1805546814635168e-15 -1.7655625192200634e-31 -6.3611093629270335e-15 -160.05139285678 36.20770744876665 148.58489881810854 -1.448574712358062e-06 -8.751197986044711e-07 -112.04794095976779 -8.827812596100317e-32 -1.5902773407317584e-15 -6.3611093629270335e-15 9.04454183195914 -15.008604296241396 1.981321753340104 3.1125783020784854 23.723739893909755 -58.73011761580259 -7.951386703658792e-16 9.655420026984722e-33 -1.3914926731402886e-15 4.317107480260303 -13.984128940325 3.833530068406516 -5.216075839669083 19.745877291909274 36.92670708808516 2.4828222926532145e-32 7.951386703658792e-16 -3.578124016646457e-15
-16.899999618530273 6.199999809265137 -122.5999984741211 2.101652353195312 0.1750952982965138 -98.67695548652111 6.61461472346314e-08 -1.1644781057815335e-07 1.5784136102519462 110.26326130767384 9.19188249883991 171.78252131338317 2.6073522005607536e-06 -4.115063302780501e-06 39.599511612578866 -3.1805546814635168e-15 1.7655625192200634e-31 -6.3611093629270335e-15 -160.51640023907888 38.201281291458955 147.67269410369727 8.710744416198274e-07 -1.5547202725044178e-06 -112.67107401142682 -5.963540027744095e-16 1.5902773407317584e-15 6.3611093629270335e-15 8.946326900942372 -13.584346737047259 -1.076103551203148 1.9682875929509953 22.71236408562478 -53.7269862510088 -1.1927080055488188e-15 1.0345092886055059e-32 -9.93923337957349e-16 4.412419967408748 -13.44196164092887 3.3764595944209077 -5.113056852576408 20.171434924488427 38.37577315317293 0.0 0.0 -6.6592863643142385e-15
-17.100000381469727 6.199999809265137 -122.5 1.926651682310206 0.3502250517043974 -98.69615636974535 2.7663075898442125e-08 8.052867995373708e-08 1.5893464830724284 110.45313606647325 9.22359351875313 171.76628742877716 2.7953487483351853e-06 -2.97843897584508e-06 39.662711183510496 -3.1805546814635164e-15 6.3611093629270335e-15 -6.3611093629270335e-15 -161.28155375508288 40.17570879103843 146.79233750751757 -1.1825305209605464e-06 -8.403353018565141e-07 -112.87370372616729 -3.1805546814635168e-15 0.0 0.0 9.067328111893596 -13.24483985073568 -1.3766338464057875 1.7199560007317025 22.68717191605398 -53.391382515485915 -1.1927080055488188e-15 1.0345092886055059e-32 -9.93923337957349e-16 4.652217922896504 -12.904682567102753 4.103070684006878 -5.359216163040378 19.864294021952123 38.01019896996762 7.951386703658794e-16 -3.975693351829397e-16 -1.490885006936024e-16
